<svg width="852" height="558" viewBox="0 0 852 558" fill="none" xmlns="http://www.w3.org/2000/svg">
<g id="undraw_educator_re_ju47 1" clip-path="url(#clip0_1_79)">
<path id="board" d="M785.204 269.129H95.1093C85.8593 269.129 78.3339 261.604 78.3339 252.353V16.7754C78.3339 7.52539 85.8593 0 95.1093 0H785.204C794.454 0 801.979 7.52539 801.979 16.7754V252.353C801.979 261.604 794.454 269.129 785.204 269.129ZM95.1093 2C86.9623 2 80.3339 8.62842 80.3339 16.7754V252.353C80.3339 260.5 86.9623 267.129 95.1093 267.129H785.204C793.351 267.129 799.979 260.5 799.979 252.353V16.7754C799.979 8.62842 793.351 2 785.204 2H95.1093V2Z" fill="#3F3D56"/>
<path id="uuid-dac6dc9f-03bc-4283-a90c-97bcdcbf45dc" d="M851.034 550.557H0V552.24H851.034V550.557Z" fill="#E6E6E6"/>
<path id="uuid-2f9646f7-bb94-4523-8d2e-fd8f0877664c" d="M851.034 464.557H0V466.24H851.034V464.557Z" fill="#E6E6E6"/>
<g id="man">
<path id="uuid-bb35f39c-94aa-41c4-b5d9-34ca9a9e88f1-70" d="M387.84 277.792C388.451 285.472 392.909 291.382 397.797 290.993C402.684 290.603 406.15 284.062 405.537 276.379C405.335 273.307 404.399 270.328 402.81 267.691L399.809 235.184L384.585 236.917L389.159 268.779C388.006 271.635 387.553 274.726 387.84 277.792Z" fill="#F8AEAE"/>
<path id="Vector" d="M369.653 126.133C369.653 126.133 383.884 118.599 391.101 129.858C398.317 141.116 403.298 262.879 403.298 262.879L383.296 265.014L379.505 179.212L369.653 126.133V126.133Z" fill="#E6E6E6"/>
<g id="Group">
<path id="Vector_2" d="M340.114 458.204L351.701 458.203L357.213 413.509L340.112 413.51L340.114 458.204Z" fill="#F8AEAE"/>
<path id="Vector_3" d="M379.814 457.941C380.174 458.549 380.365 460.51 380.365 461.217C380.365 463.389 378.604 465.15 376.432 465.15H340.547C339.066 465.15 337.864 463.949 337.864 462.467V460.973C337.864 460.973 336.089 456.483 339.744 450.948C339.744 450.948 344.286 455.282 351.074 448.494L353.075 444.868L367.564 455.464L375.595 456.453C377.352 456.669 378.91 456.419 379.813 457.941H379.814H379.814Z" fill="#350A10"/>
</g>
<g id="Group_2">
<path id="Vector_4" d="M407.168 456.286L418.395 453.417L412.674 408.749L396.104 412.983L407.168 456.286Z" fill="#F8AEAE"/>
<path id="Vector_5" d="M445.568 446.205C446.068 446.705 446.738 448.558 446.913 449.243C447.45 451.347 446.18 453.489 444.076 454.026L409.307 462.908C407.872 463.275 406.411 462.408 406.044 460.973L405.674 459.525C405.674 459.525 402.843 455.614 405.014 449.347C405.014 449.347 410.488 452.421 415.384 444.165L416.426 440.157L433.086 446.837L441.112 445.807C442.868 445.582 444.315 444.954 445.568 446.205H445.568V446.205Z" fill="#350A10"/>
</g>
<path id="Vector_6" d="M330.527 116.525L329.978 112.538L336.508 96.5902L354.449 94.5967L358.323 117.428L330.527 116.525Z" fill="#FFB6B6"/>
<path id="Vector_7" opacity="0.1" d="M330.527 116.525L329.978 112.538L336.508 96.5902L354.449 94.5967L358.323 117.428L330.527 116.525Z" fill="black"/>
<path id="Vector_8" d="M309.596 229.158L301.622 251.086L307.602 263.047L337.505 436.481H357.385L353.453 282.982L399.303 436.481H418.979L403.157 332.82L391.329 237.132L384.155 232.7L349.466 213.21L309.596 229.158Z" fill="#050505"/>
<path id="Vector_9" d="M360.43 244.109L348.469 246.102L332.521 208.226H368.404L360.43 244.109Z" fill="#E6E6E6"/>
<path id="Vector_10" d="M384.352 234.141L360.43 244.109L352.456 226.167L348.469 246.102L306.605 232.626L312.586 208.226L306.605 128.486L327.717 114.412L330.527 112.538L356.443 114.532L358.715 115.768L374.384 124.499L378.371 190.285L384.352 234.141Z" fill="#050505"/>
<path id="Vector_11" d="M358.715 115.768L347.472 163.372L327.717 114.412L330.527 112.538L356.443 114.532L358.715 115.768Z" fill="#E6E6E6"/>
<path id="Vector_12" d="M339.498 112.538L335.511 119.405L339.498 121.694L337.505 163.496L345.479 174.337L353.453 158.315L347.472 121.694L349.466 112.538H339.498Z" fill="#350A10"/>
<path id="Vector_13" d="M345.479 108.551C355.938 108.551 364.417 100.072 364.417 89.613C364.417 79.1537 355.938 70.6748 345.479 70.6748C335.019 70.6748 326.54 79.1537 326.54 89.613C326.54 100.072 335.019 108.551 345.479 108.551Z" fill="#F8AEAE"/>
<path id="Vector_14" d="M333.376 91.2742L337.468 93.0601L339.254 82.345C339.254 82.345 346.397 78.7734 351.754 80.5592C357.112 82.345 366.041 80.5592 366.041 80.5592C366.041 80.5592 366.041 62.7008 353.54 62.7008C341.039 62.7008 328.539 64.4866 328.539 69.8442C328.539 75.2017 323.181 80.5592 323.181 80.5592C323.181 80.5592 316.038 91.2742 323.181 98.4176C330.324 105.561 333.896 105.561 333.896 105.561L333.376 91.2742Z" fill="#683A40"/>
<path id="uuid-97233535-ec91-4408-928f-bf1e5273ca3e-71" d="M296.629 277.232C296.421 284.934 300.227 291.283 305.128 291.415C310.029 291.546 314.169 285.41 314.376 277.706C314.501 274.629 313.887 271.568 312.586 268.777L313.054 236.135L297.731 236.242L298.897 268.41C297.447 271.127 296.669 274.153 296.629 277.232V277.232Z" fill="#F8AEAE"/>
<path id="Vector_15" d="M315.586 124.462C315.586 124.462 302.628 120.475 296.648 132.436C290.667 144.397 298.641 266 298.641 266H318.757L313.418 180.28L315.586 124.462V124.462Z" fill="#E6E6E6"/>
</g>
<g id="lady-right">
<path id="Vector_16" d="M799.689 342.008L751.368 327.216C750.299 326.889 749.177 326.769 748.064 326.864L503.162 347.707C499.67 348.004 498.792 352.714 501.943 354.248L509.787 358.07H509.578V541.022H516.97V361.57L541.556 373.547C543.437 374.464 545.536 374.838 547.618 374.627L550.234 374.363V541.022H557.626V373.617L747.046 354.483V541.022H754.438V353.737L785.854 350.563V541.022H793.246V349.817L798.977 349.238C803.001 348.831 803.556 343.192 799.689 342.008H799.689Z" fill="#3F3D56"/>
<path id="Vector_17" d="M574.258 346.982C578.878 346.982 647.254 338.666 647.254 338.666L657.418 352.526L586.27 366.386L574.258 346.982V346.982Z" fill="white"/>
<g id="Group_3">
<path id="Vector_18" d="M649.302 533.917L637.422 533.895L631.85 488.064L649.383 488.096L649.302 533.917Z" fill="#A0616A"/>
<path id="Vector_19" d="M608.602 533.577C608.231 534.2 608.032 536.21 608.031 536.934C608.027 539.161 609.829 540.969 612.056 540.973L648.845 541.036C650.364 541.039 651.598 539.81 651.6 538.29L651.603 536.759C651.603 536.759 653.431 532.159 649.694 526.478C649.694 526.478 645.029 530.913 638.082 523.942L636.037 520.221L621.164 531.059L612.929 532.059C611.128 532.277 609.531 532.018 608.602 533.577H608.602L608.602 533.577Z" fill="#050505"/>
</g>
<g id="Group_4">
<path id="Vector_20" d="M713.06 512.605L703.687 519.674L671.958 486.887L685.791 476.453L713.06 512.605Z" fill="#A0616A"/>
<path id="Vector_21" d="M680.789 536.615C680.868 537.327 681.911 539.029 682.342 539.601C683.667 541.357 686.165 541.707 687.922 540.382L716.947 518.487C718.145 517.583 718.384 515.878 717.48 514.679L716.568 513.471C716.568 513.471 715.264 508.756 708.931 506.51C708.931 506.51 707.901 512.786 698.27 511.438L694.439 509.726L689.185 527.137L683.293 532.837C682.004 534.084 680.591 534.832 680.789 536.615L680.789 536.615V536.615Z" fill="#050505"/>
</g>
<path id="Vector_22" d="M688.232 275.74C688.232 286.695 679.352 295.575 668.397 295.575C657.442 295.575 648.561 286.695 648.561 275.74C648.561 264.785 657.442 255.904 668.397 255.904C679.352 255.904 688.232 264.785 688.232 275.74Z" fill="#A0616A"/>
<path id="Vector_23" d="M686.363 390.107C686.363 390.107 613.332 385.973 609.198 394.241C605.064 402.508 631.546 516.074 631.546 516.074L655.173 511.122L643.647 431.445C643.647 431.445 704.59 447.586 712.858 428.294C721.126 409.003 718.746 401.819 718.746 401.819L686.363 390.107V390.107Z" fill="#050505"/>
<path id="Vector_24" d="M705.075 376.229C705.075 376.229 633.551 391.561 631.752 400.628C629.952 409.695 685.533 512.21 685.533 512.21L707.008 501.184L674.815 427.395C674.815 427.395 737.857 426.838 740.727 406.047C743.597 385.256 739.402 378.958 739.402 378.958L705.075 376.229V376.229Z" fill="#050505"/>
<path id="Vector_25" d="M713.234 298.472H678.871L655.359 337.055C655.359 337.055 649.848 361.989 655.359 364.68C660.871 367.37 660.871 396.308 660.871 396.308L718.746 401.819C718.746 401.819 727.013 315.008 724.257 306.74C721.501 298.472 713.234 298.472 713.234 298.472V298.472Z" fill="white"/>
<path id="Vector_26" d="M658.804 323.965L655.359 364.679L616.612 348.235L607.364 343.584C605.553 341.222 603.202 339.328 600.509 338.061C593.812 334.797 586.702 335.605 584.625 339.866C582.548 344.127 586.292 350.226 592.988 353.488C595.646 354.829 598.587 355.513 601.564 355.484L628.622 370.852L628.654 370.792L628.774 371.006L671.206 388.729L680.969 335.28L658.804 323.965H658.804Z" fill="#A0616A"/>
<path id="Vector_27" d="M654.67 278.492C654.67 278.492 634.001 281.248 642.269 263.334C642.269 263.334 641.008 253.624 647.15 252.967C653.292 252.311 661.56 241.287 661.56 241.287C661.56 241.287 680.515 231.641 690.329 241.287C700.143 250.933 729.08 307.429 729.08 307.429L709.789 328.098C709.789 328.098 698.191 297.61 684.698 301.141C671.206 304.673 658.804 315.203 658.804 315.203C658.804 315.203 645.111 308.351 651.269 302.378C657.426 296.405 654.67 278.492 654.67 278.492Z" fill="#050505"/>
<path id="Vector_28" d="M682.23 308.807C682.23 308.807 672.584 296.405 665.694 306.051C658.804 315.697 653.292 328.098 653.292 328.098L680.852 337.744L682.23 308.807H682.23Z" fill="white"/>
<path id="Vector_29" d="M786.868 538.279L754.849 436.509L754.854 436.508H754.928L754.798 436.342L754.795 436.338L752.515 429.09L752.516 429.089C755.99 426.095 758.356 421.817 758.827 416.892L744.191 336.393C745.198 325.823 737.094 316.583 726.478 316.204L693.454 316.121C684.066 315.788 675.935 322.57 674.567 331.866L673.837 336.8L663.72 405.628C663.35 408.105 663.498 410.544 664.08 412.826L656.799 413.778L654.591 414.074L645.859 415.21L645.831 415.22L644.741 415.358H643.558V444.926H643.632V539.433C643.632 540.042 644.131 540.541 644.741 540.541C645.36 540.541 645.859 540.042 645.859 539.433V444.926H658.813L671.74 539.322C671.823 539.876 672.294 540.283 672.849 540.283C672.895 540.283 672.95 540.283 672.997 540.273C673.606 540.19 674.031 539.627 673.948 539.017L661.068 444.926H723.225C729.397 444.926 735.116 442.968 739.773 439.614L764.417 539.149C764.545 539.652 764.998 539.987 765.495 539.987C765.586 539.987 765.678 539.976 765.77 539.953C766.366 539.801 766.726 539.195 766.574 538.6L741.692 438.103C742.022 437.827 742.353 437.533 742.666 437.229L752.559 436.647L784.745 538.947C784.894 539.422 785.333 539.727 785.806 539.727C785.917 539.727 786.029 539.71 786.14 539.675C786.727 539.49 787.052 538.865 786.868 538.279V538.279ZM750.4 430.669C750.483 430.623 750.557 430.567 750.631 430.521L750.631 430.52L750.869 431.276L750.4 430.669V430.669Z" fill="#3F3D56"/>
</g>
<g id="lady-left">
<g id="Group_5">
<path id="Vector_30" d="M171.565 375.775L193.114 362.071L201.875 367.355L171.565 402.183V375.775Z" fill="#DD8591"/>
<path id="Vector_31" d="M142.097 322.733C142.097 322.733 127.784 326.1 134.52 345.465C141.255 364.83 163.146 405.243 169.881 402.717C176.617 400.191 177.459 374.933 177.459 374.933C177.459 374.933 176.617 375.775 173.249 372.407C169.881 369.039 169.881 370.577 169.881 366.861C169.881 363.146 167.127 360.391 167.127 360.391L163.988 353.884C163.988 353.884 163.988 323.574 151.359 321.891C138.73 320.207 142.097 322.733 142.097 322.733L142.097 322.733Z" fill="#E6E6E6"/>
<path id="Vector_32" d="M208.968 366.45C214.558 360.86 216.29 353.53 212.838 350.078C209.385 346.626 202.056 348.358 196.466 353.948C190.876 359.537 189.144 366.867 192.596 370.32C196.049 373.772 203.379 372.04 208.968 366.45Z" fill="#DD8591"/>
</g>
<g id="Group_6">
<path id="Vector_33" d="M86.3481 432.29L101.052 456.628L186.741 451.557L163.925 422.149L86.3481 432.29Z" fill="#E6E6E6"/>
<path id="Vector_34" d="M111.952 546.12C111.453 546.12 111.018 545.751 110.949 545.243L85.3434 358.236C85.2674 357.681 85.6556 357.17 86.2104 357.094C86.765 357.014 87.2765 357.406 87.3527 357.961L112.958 544.968C113.034 545.523 112.646 546.035 112.091 546.11C112.044 546.117 111.998 546.12 111.952 546.12Z" fill="#E6E6E6"/>
<path id="Vector_35" d="M86.3481 546.358C85.788 546.358 85.334 545.903 85.334 545.343V358.135C85.334 357.575 85.788 357.121 86.3481 357.121C86.9081 357.121 87.3621 357.575 87.3621 358.135V545.343C87.3621 545.903 86.9081 546.358 86.3481 546.358Z" fill="#E6E6E6"/>
<path id="Vector_36" d="M214.882 545.613C214.451 545.613 214.051 545.336 213.915 544.903L153.324 352.319C153.156 351.785 153.452 351.215 153.987 351.047C154.521 350.879 155.09 351.176 155.258 351.71L215.849 544.294C216.017 544.829 215.721 545.398 215.186 545.566C215.085 545.598 214.982 545.613 214.882 545.613V545.613Z" fill="#E6E6E6"/>
<path id="Vector_37" d="M196.374 545.85C195.922 545.85 195.509 545.546 195.392 545.087L153.308 375.117C153.17 374.574 153.498 374.022 154.041 373.884C154.585 373.747 155.136 374.074 155.274 374.617L197.358 544.586C197.496 545.129 197.168 545.681 196.625 545.819C196.541 545.841 196.457 545.85 196.374 545.85H196.374Z" fill="#E6E6E6"/>
<path id="Vector_38" d="M86.3481 361.117L156.573 360.037L169.502 433.811H87.3622L86.3481 361.117Z" fill="#E6E6E6"/>
</g>
<g id="Group_7">
<path id="Vector_39" d="M194.266 470.597L176.568 501.755L197.117 506.279L205.684 484.118L194.266 470.597Z" fill="#DD8591"/>
<path id="Vector_40" d="M182.925 495.873C182.925 495.873 182.237 490.791 178.194 492.404C174.151 494.016 162.483 500.009 162.483 500.009C162.483 500.009 192.916 549.46 198.692 547.156C204.468 544.852 197.554 530.874 197.554 530.874L199.08 506.165L182.925 495.873H182.925Z" fill="#050505"/>
<path id="Vector_41" d="M115.997 410.136C115.997 410.136 109.683 439.183 129.047 449.286C148.412 459.39 214.504 434.553 214.504 434.553L184.194 479.968L205.243 488.437C205.243 488.437 253.233 425.291 249.866 415.188C246.498 405.085 223.766 404.243 223.766 404.243L172.407 406.769L158.936 402.559L115.997 410.136H115.997Z" fill="#050505"/>
</g>
<g id="Group_8">
<path id="Vector_42" d="M168.084 484.425L140.261 507.008L157.755 518.699L173.798 501.174L168.084 484.425Z" fill="#DD8591"/>
<path id="Vector_43" d="M148.322 503.842C148.322 503.842 149.531 498.858 145.178 498.889C140.826 498.92 127.777 500.256 127.777 500.256C127.777 500.256 138.13 557.391 144.348 557.347C150.565 557.303 149.212 541.767 149.212 541.767L159.624 519.307L148.322 503.842V503.842Z" fill="#050505"/>
<path id="Vector_44" d="M117.181 399.629C117.181 399.629 100.73 424.387 115.09 440.844C129.451 457.301 200.05 458.217 200.05 458.217L155.292 489.489L171.816 505.037C171.816 505.037 239.494 463.683 240.034 453.047C240.573 442.411 219.706 433.355 219.706 433.355L170.949 417.019L159.934 408.196L117.181 399.629H117.181Z" fill="#050505"/>
</g>
<path id="Vector_45" d="M159.443 342.284C159.443 342.284 143.446 336.391 135.869 336.391C135.145 336.391 134.429 336.475 133.714 336.627C128.864 337.654 124.402 341.821 122.263 344.095C121.43 344.987 120.95 345.585 120.95 345.585C120.95 345.585 121 345.004 121.101 343.985C121.598 338.63 123.434 321.059 126.726 309.811C127.904 305.795 129.26 302.587 130.817 301.029C134.446 297.392 136.122 293.031 136.896 289.781C137.553 286.994 137.553 285.032 137.553 285.032L131.415 282.389L130.278 274.963C130.076 275.838 129.142 277.548 126.001 280.823C125.732 281.101 125.437 281.336 125.126 281.538C120.596 284.384 111.36 279.434 106.384 276.318C108.455 269.12 112.21 262.536 119.03 261.458C135.027 258.932 135.027 249.671 145.13 259.774C145.964 260.608 146.806 261.408 147.648 262.182C150.881 268.362 152.059 276.647 152.48 282.406C152.784 286.438 152.708 289.242 152.708 289.242C152.708 289.242 156.917 314.5 163.653 319.552C170.389 324.604 159.443 342.284 159.443 342.284V342.284Z" fill="#050505"/>
<path id="Vector_46" d="M128.291 301.871L116.915 318.558L142.604 325.446V301.871H128.291Z" fill="#DD8591"/>
<path id="Vector_47" opacity="0.1" d="M128.291 301.871L116.915 318.558L142.604 325.446V301.871H128.291Z" fill="#DD8591"/>
<path id="Vector_48" d="M144.202 317.944L119.786 307.841C119.786 307.841 86.9503 322.153 89.4761 349.938C92.0019 377.722 115.576 425.712 115.576 425.712L162.725 405.506L157.673 351.621L144.202 317.944V317.944Z" fill="#E6E6E6"/>
<path id="Vector_49" d="M133.733 309.321C145.63 309.321 155.275 299.677 155.275 287.78C155.275 275.883 145.63 266.239 133.733 266.239C121.837 266.239 112.192 275.883 112.192 287.78C112.192 299.677 121.837 309.321 133.733 309.321Z" fill="#DD8591"/>
<path id="Vector_50" d="M162.811 279.981C158.601 284.191 155.234 288.4 155.234 288.4L153.55 281.665C153.55 281.665 153.162 281.951 152.48 282.406C149.811 284.224 142.647 288.796 136.896 289.781C134.337 290.219 132.063 289.941 130.582 288.4C127.441 285.125 126.507 283.416 126.305 282.54L125.168 289.966L119.03 292.61C119.03 292.61 119.03 301.854 125.766 308.607C126.094 308.935 126.414 309.339 126.725 309.811C129.942 314.66 132.249 326.532 133.714 336.626C135.01 345.602 135.633 353.162 135.633 353.162C135.633 353.162 129.26 345.181 122.263 344.095C121.876 344.036 121.489 343.993 121.101 343.985C120.975 343.968 120.84 343.968 120.714 343.968C113.137 343.968 97.1397 349.862 97.1397 349.862C97.1397 349.862 86.1945 332.181 92.93 327.129C99.6655 322.078 103.875 296.82 103.875 296.82C103.875 296.82 103.597 286.009 106.384 276.318C108.455 269.12 112.21 262.536 119.03 261.458C135.027 258.932 135.027 249.671 145.13 259.774C145.964 260.608 146.806 261.408 147.648 262.182C157.061 270.837 166.676 276.116 162.811 279.981V279.981Z" fill="#050505"/>
<path id="Vector_51" d="M68.3339 393H60.3339V551H68.3339V393Z" fill="#3F3D56"/>
<path id="Vector_52" d="M262.334 393H254.334V551H262.334V393Z" fill="#3F3D56"/>
<path id="Vector_53" d="M211.334 326H158.334V379H211.334V326Z" fill="#6C63FF"/>
<g id="Group_9">
<path id="Vector_54" d="M127.784 382.352L149.333 368.648L158.094 373.933L127.784 408.761V382.352Z" fill="#DD8591"/>
<path id="Vector_55" d="M98.3164 329.31C98.3164 329.31 84.0035 332.678 90.739 352.042C97.4745 371.407 119.365 411.82 126.1 409.294C132.836 406.768 133.678 381.51 133.678 381.51C133.678 381.51 132.836 382.352 129.468 378.984C126.1 375.617 126.1 377.155 126.1 373.439C126.1 369.723 123.346 366.969 123.346 366.969L120.207 360.462C120.207 360.462 120.207 330.152 107.578 328.468C94.9487 326.784 98.3165 329.31 98.3165 329.31H98.3164Z" fill="#E6E6E6"/>
<path id="Vector_56" d="M165.187 373.027C170.777 367.438 172.509 360.108 169.057 356.656C165.605 353.203 158.275 354.936 152.685 360.525C147.095 366.115 145.363 373.445 148.815 376.897C152.268 380.35 159.598 378.617 165.187 373.027Z" fill="#DD8591"/>
</g>
<path id="Vector_57" d="M278.334 387H36.3339V405H278.334V387Z" fill="#3F3D56"/>
</g>
<path id="Vector_58" d="M524.204 243H488.464C485.631 243 483.334 245.297 483.334 248.13V262.87C483.334 265.703 485.631 268 488.464 268H524.204C527.037 268 529.334 265.703 529.334 262.87V248.13C529.334 245.297 527.037 243 524.204 243Z" fill="#3F3D56"/>
<path id="Vector_59" d="M599.204 257.74H563.464C560.631 257.74 558.334 260.037 558.334 262.87V262.87C558.334 265.703 560.631 268 563.464 268H599.204C602.037 268 604.334 265.703 604.334 262.87V262.87C604.334 260.037 602.037 257.74 599.204 257.74Z" fill="#6C63FF"/>
</g>
<defs>
<clipPath id="clip0_1_79">
<rect width="851.034" height="557.347" fill="white"/>
</clipPath>
</defs>
</svg>
